<?xml version="1.0" encoding="UTF-8" standalone="no" ?>
<!DOCTYPE svg PUBLIC "-//W3C//DTD SVG 1.1//EN" "http://www.w3.org/Graphics/SVG/1.1/DTD/svg11.dtd">
<svg xmlns="http://www.w3.org/2000/svg" xmlns:xlink="http://www.w3.org/1999/xlink" version="1.1" width="1080" height="1080" viewBox="0 0 1080 1080" xml:space="preserve">
<desc>Created with Fabric.js 4.2.0</desc>
<defs>
</defs>
<rect x="0" y="0" width="100%" height="100%" fill="transparent"></rect>
<g transform="matrix(1 0 0 1 540 540)" id="f6d2abc8-ad3f-4b27-9733-0eeb8db31a5d"  >
<rect style="stroke: none; stroke-width: 1; stroke-dasharray: none; stroke-linecap: butt; stroke-dashoffset: 0; stroke-linejoin: miter; stroke-miterlimit: 4; fill: rgb(255,255,255); fill-rule: nonzero; opacity: 1;" vector-effect="non-scaling-stroke"  x="-540" y="-540" rx="0" ry="0" width="1080" height="1080" />
</g>
<g transform="matrix(1 0 0 1 540 540)" id="bd3c002c-07bc-45d4-9d0a-2e9fcc93b9e3"  >
</g>
<g transform="matrix(18 0 0 18 554 554)"  >
<path style="stroke: rgb(78,81,90); stroke-opacity: 0; stroke-width: 2; stroke-dasharray: none; stroke-linecap: butt; stroke-dashoffset: 0; stroke-linejoin: miter; stroke-miterlimit: 4; fill: rgb(123,117,117); fill-rule: nonzero; opacity: 0;" vector-effect="non-scaling-stroke"  transform=" translate(-12, -14.33)" d="M 12.0010534 0 C 12.0010534 0 9.76360948 2.49026245 6.90886699 3.57316846 C 6.09563407 3.88287115 4.61664571 4.11883511 3.23035747 4.28527397 C 1.35528676 4.51491746 -0.0331082964 5.92016709 0.000600840003 7.57612841 C 0.0490577236 9.99897259 0.16493288 13.5826752 0.43039233 17.1116004 C 0.895999777 23.2824792 10.4736082 28.6569796 12.0010534 28.6569796 M 12.0010534 0 C 12.0010534 0 14.2363905 2.49026245 17.091133 3.57316846 C 17.9043659 3.88287115 19.3854611 4.11883511 20.7696425 4.28527397 C 22.6447132 4.51491746 24.0331083 5.92016709 23.9993992 7.57612841 C 23.9509423 9.99897259 23.8371739 13.5826752 23.5696077 17.1116004 C 23.1040002 23.2824792 13.5917033 28.6569796 12.0010534 28.6569796 M 7.57757198 14.8918537 L 10.567151 17.6370415 L 16.4220067 11.0195167" stroke-linecap="round" />
</g>
<g transform="matrix(17.28 0 0 17.28 540 540)"  >
<path style="stroke: rgb(20,43,111); stroke-width: 2; stroke-dasharray: none; stroke-linecap: butt; stroke-dashoffset: 0; stroke-linejoin: round; stroke-miterlimit: 4; fill: rgb(72,72,72); fill-opacity: 0; fill-rule: evenodd; opacity: 1;" vector-effect="non-scaling-stroke"  transform=" translate(-12.25, -12)" d="M 20.5 6.5 L 20.5 23 L 4 23 L 4 6.5 L 20.5 6.5 Z M 12.25 1 C 14.5281746 1 16.375 2.84682541 16.375 5.125 C 16.375 5.43937389 16.3000569 5.88826911 16.1501708 6.47168566 C 11.4355784 6.44324758 8.85377775 6.42767434 8.40476894 6.42496595 L 8.33387282 6.42453831 C 8.33387282 6.42453831 8.125 5.57904881 8.125 5.125 C 8.125 2.84682541 9.97182541 1 12.25 1 Z" stroke-linecap="round" />
</g>
</svg>