<?xml version="1.0" encoding="UTF-8" standalone="no" ?>
<!DOCTYPE svg PUBLIC "-//W3C//DTD SVG 1.1//EN" "http://www.w3.org/Graphics/SVG/1.1/DTD/svg11.dtd">
<svg xmlns="http://www.w3.org/2000/svg" xmlns:xlink="http://www.w3.org/1999/xlink" version="1.1" width="" height="" viewBox="0 0 1080 1080" xml:space="preserve">
<desc>Created with Fabric.js 4.2.0</desc>
<defs>
</defs>
<rect x="0" y="0" width="100%" height="100%" fill="transparent"></rect>
<g transform="matrix(1 0 0 1 540 540)" id="f6d2abc8-ad3f-4b27-9733-0eeb8db31a5d"  >
<rect style="stroke: none; stroke-width: 1; stroke-dasharray: none; stroke-linecap: butt; stroke-dashoffset: 0; stroke-linejoin: miter; stroke-miterlimit: 4; fill: rgb(255,255,255); fill-rule: nonzero; opacity: 1;" vector-effect="non-scaling-stroke"  x="-540" y="-540" rx="0" ry="0" width="1080" height="1080" />
</g>
<g transform="matrix(1 0 0 1 540 540)" id="bd3c002c-07bc-45d4-9d0a-2e9fcc93b9e3"  >
</g>
<g transform="matrix(12 0 0 12 540 540)" id="35142b35-0091-4af7-994f-3024ccbf08b4"  >
<path style="stroke: rgb(20,43,111); stroke-width: 0; stroke-dasharray: none; stroke-linecap: butt; stroke-dashoffset: 0; stroke-linejoin: miter; stroke-miterlimit: 4; fill: rgb(20,43,111); fill-rule: nonzero; opacity: 1;" vector-effect="non-scaling-stroke"  transform=" translate(-18, -11.81)" d="M 15.8204013 21.8128245 C 10.6631121 21.8128245 6.40325523 17.8863477 5.87287779 12.867125 L 5.97390206 12.867125 C 6.55984285 12.867125 7.0329732 12.3923109 7.0329732 11.8063701 C 7.0329732 11.2204294 6.55984285 10.747299 5.97390206 10.747299 L 5.87287779 10.747299 C 6.40325523 5.72639259 10.6631121 1.79991581 15.8204013 1.79991581 C 20.9776905 1.79991581 25.2375474 5.72639259 25.7679248 10.747299 L 25.6669005 10.747299 C 25.0809597 10.747299 24.6078294 11.2204294 24.6078294 11.8063701 C 24.6078294 12.3923109 25.0809597 12.867125 25.6669005 12.867125 L 25.7679248 12.867125 C 25.2375474 17.8863477 20.9776905 21.8128245 15.8204013 21.8128245 M 35.6901922 11.0823628 L 31.3478322 6.74000281 C 30.9353164 6.32748702 30.2786586 6.32748702 29.8998176 6.74000281 C 29.4856181 7.15420233 29.4856181 7.80917637 29.8998176 8.1880174 L 32.4843553 10.7725551 L 27.5728918 10.7725551 C 27.0475656 4.7447734 21.9811983 0 15.8204013 0 C 9.66802301 0 4.60670689 4.73130349 4.06791076 10.747299 L 1.0573874 10.747299 C 0.473130349 10.747299 0 11.2204294 0 11.8063701 C 0 12.3923109 0.473130349 12.867125 1.0573874 12.867125 L 4.06791076 12.867125 C 4.60670689 18.8814368 9.66802301 23.6127403 15.8204013 23.6127403 C 21.9811983 23.6127403 27.0475656 18.8679669 27.5728918 12.8401852 L 32.4843553 12.8401852 L 29.8998176 15.4264066 C 29.4856181 15.8389224 29.4856181 16.4955802 29.8998176 16.8727375 C 30.3123334 17.286937 30.9689912 17.286937 31.3478322 16.8727375 L 35.6901922 12.5303774 C 35.897292 12.3232777 36 12.0471447 36 11.8080539 C 36 11.5319209 35.897292 11.2894626 35.6901922 11.0823628 M 11.4431879 10.7469623 L 9.25601235 10.7469623 C 8.6717553 10.7469623 8.19525747 11.2200926 8.19525747 11.8060334 C 8.19525747 12.3936579 8.6717553 12.8667883 9.25601235 12.8667883 L 11.4431879 12.8667883 C 12.0308124 12.8667883 12.5039428 12.3936579 12.5039428 11.8060334 C 12.5039428 11.2200926 12.0308124 10.7469623 11.4431879 10.7469623 M 16.9138207 10.7469623 L 14.7249614 10.7469623 C 14.1407044 10.7469623 13.6658903 11.2200926 13.6658903 11.8060334 C 13.6658903 12.3936579 14.1407044 12.8667883 14.7249614 12.8667883 L 16.9138207 12.8667883 C 17.4997615 12.8667883 17.9728918 12.3936579 17.9728918 11.8060334 C 17.9728918 11.2200926 17.4997615 10.7469623 16.9138207 10.7469623 M 22.3842851 10.7469623 L 20.1971096 10.7469623 C 19.6128525 10.7469623 19.1363547 11.2200926 19.1363547 11.8060334 C 19.1363547 12.3936579 19.6128525 12.8667883 20.1971096 12.8667883 L 22.3842851 12.8667883 C 22.9719096 12.8667883 23.44504 12.3936579 23.44504 11.8060334 C 23.44504 11.2200926 22.9719096 10.7469623 22.3842851 10.7469623" stroke-linecap="round" />
</g>
</svg>