<?xml version="1.0" encoding="UTF-8" standalone="no" ?>
<!DOCTYPE svg PUBLIC "-//W3C//DTD SVG 1.1//EN" "http://www.w3.org/Graphics/SVG/1.1/DTD/svg11.dtd">
<svg xmlns="http://www.w3.org/2000/svg" xmlns:xlink="http://www.w3.org/1999/xlink" version="1.1" width="1080" height="1080" viewBox="0 0 1080 1080" xml:space="preserve">
<desc>Created with Fabric.js 4.2.0</desc>
<defs>
</defs>
<rect x="0" y="0" width="100%" height="100%" fill="transparent"></rect>
<g transform="matrix(1 0 0 1 540 540)" id="f6d2abc8-ad3f-4b27-9733-0eeb8db31a5d"  >
<rect style="stroke: none; stroke-width: 1; stroke-dasharray: none; stroke-linecap: butt; stroke-dashoffset: 0; stroke-linejoin: miter; stroke-miterlimit: 4; fill: rgb(255,255,255); fill-rule: nonzero; opacity: 1;" vector-effect="non-scaling-stroke"  x="-540" y="-540" rx="0" ry="0" width="1080" height="1080" />
</g>
<g transform="matrix(1 0 0 1 540 540)" id="bd3c002c-07bc-45d4-9d0a-2e9fcc93b9e3"  >
</g>
<g transform="matrix(23.05 0 0 23.05 540 540)"  >
<g style="" vector-effect="non-scaling-stroke"   >
		<g transform="matrix(1 0 0 1 0 0)"  >
<path style="stroke: none; stroke-width: 1; stroke-dasharray: none; stroke-linecap: butt; stroke-dashoffset: 0; stroke-linejoin: miter; stroke-miterlimit: 4; fill: rgb(20,43,111); fill-rule: evenodd; opacity: 1;" vector-effect="non-scaling-stroke"  transform=" translate(-8.87, -9.03)" d="M 17.4693214 2.59913571 C 17.2301786 2.48277857 16.9412143 2.5821 16.8251786 2.82220714 L 16.0569643 4.40363571 C 15.7146429 3.84627857 15.3131786 3.32974286 14.8551429 2.86592143 C 13.6909286 1.68627857 12.4183929 1.08456429 11.556 0.787564286 C 9.91253571 0.221207143 8.43010714 0.272957143 7.47610714 0.416314286 C 5.52278571 0.709135714 4.10110714 1.59370714 3.25221429 2.28413571 C 2.42614286 2.95624286 1.29471429 4.1346 0.59625 5.93138571 C -0.0797142857 7.66999286 -0.0601071429 9.24981429 0.0755357143 10.2690643 C 0.208607143 11.26935 0.591428571 12.7688143 1.66082143 14.2316357 C 2.20017857 14.9696357 3.74175 16.7609571 6.39835714 17.46135 C 6.85960714 17.5831714 7.34560714 17.6673857 7.80396429 17.7049929 C 8.01321429 17.7220286 8.21989286 17.7303857 8.42464286 17.7303857 C 10.9035 17.7303857 13.0384286 16.5272786 14.4343929 15.4710643 C 14.6465357 15.31035 14.6883214 15.0078857 14.5279286 14.7954214 C 14.3672143 14.5829571 14.0644286 14.5414929 13.8522857 14.7018857 C 12.4752857 15.7439571 10.3217143 16.9441714 7.88271429 16.7439214 C 7.47996429 16.7108143 7.0515 16.6365643 6.64425 16.5292071 C 4.22003571 15.8898857 2.81282143 14.1734571 2.43932143 13.6627071 C 1.48982143 12.3634929 1.14975 11.0311714 1.03114286 10.1421 C 0.910607143 9.23502857 0.89325 7.82845714 1.49496429 6.28077857 C 2.11692857 4.68038571 3.12492857 3.6306 3.86067857 3.0321 C 4.61603571 2.41752857 5.8815 1.63035 7.61882143 1.36999286 C 8.46707143 1.24302857 9.78332143 1.19706429 11.2416429 1.69945714 C 12.0069643 1.96270714 13.1358214 2.4966 14.1688929 3.54317143 C 14.5976786 3.97774286 14.96925 4.46502857 15.2836071 4.99152857 L 13.5845357 4.62156429 C 13.3238571 4.56531429 13.0673571 4.72988571 13.0104643 4.99024286 C 12.9538929 5.2506 13.1191071 5.50742143 13.3791429 5.56399286 L 15.7872857 6.08824286 C 15.822 6.09595714 15.8563929 6.09949286 15.8904643 6.09949286 C 15.9920357 6.09949286 16.0871786 6.06381429 16.1672143 6.00724286 C 16.2964286 5.97156429 16.4102143 5.88317143 16.4732143 5.75331429 L 17.6923929 3.24327857 C 17.80875 3.00381429 17.7087857 2.71549286 17.4693214 2.59913571" stroke-linecap="round" />
</g>
		<g transform="matrix(1 0 0 1 1.19 -1.23)"  >
<path style="stroke: none; stroke-width: 1; stroke-dasharray: none; stroke-linecap: butt; stroke-dashoffset: 0; stroke-linejoin: miter; stroke-miterlimit: 4; fill: rgb(20,43,111); fill-rule: evenodd; opacity: 1;" vector-effect="non-scaling-stroke"  transform=" translate(-10.06, -7.8)" d="M 8.38536429 3.88311429 C 8.1189 3.88311429 7.90322143 4.09879286 7.90322143 4.36525714 L 7.90322143 9.6624 C 7.90322143 9.84979286 8.01154286 10.02015 8.18157857 10.0995429 L 11.5392214 11.6665071 C 11.6051143 11.6973643 11.6745429 11.7118286 11.7426857 11.7118286 C 11.9242929 11.7118286 12.0981857 11.60865 12.18015 11.4334714 C 12.29265 11.1920786 12.1885071 10.9053643 11.9471143 10.7925429 L 8.86750714 9.35543571 L 8.86750714 4.36525714 C 8.86750714 4.09879286 8.65182857 3.88311429 8.38536429 3.88311429" stroke-linecap="round" />
</g>
</g>
</g>
</svg>