<?xml version="1.0" encoding="UTF-8" standalone="no" ?>
<!DOCTYPE svg PUBLIC "-//W3C//DTD SVG 1.1//EN" "http://www.w3.org/Graphics/SVG/1.1/DTD/svg11.dtd">
<svg xmlns="http://www.w3.org/2000/svg" xmlns:xlink="http://www.w3.org/1999/xlink" version="1.1" width="1080" height="1080" viewBox="0 0 1080 1080" xml:space="preserve">
<desc>Created with Fabric.js 4.2.0</desc>
<defs>
</defs>
<rect x="0" y="0" width="100%" height="100%" fill="transparent"></rect>
<g transform="matrix(1 0 0 1 540 540)" id="f6d2abc8-ad3f-4b27-9733-0eeb8db31a5d"  >
<rect style="stroke: none; stroke-width: 1; stroke-dasharray: none; stroke-linecap: butt; stroke-dashoffset: 0; stroke-linejoin: miter; stroke-miterlimit: 4; fill: rgb(255,255,255); fill-rule: nonzero; opacity: 1;" vector-effect="non-scaling-stroke"  x="-540" y="-540" rx="0" ry="0" width="1080" height="1080" />
</g>
<g transform="matrix(1 0 0 1 540 540)" id="bd3c002c-07bc-45d4-9d0a-2e9fcc93b9e3"  >
</g>
<g transform="matrix(33.16 0 0 33.16 540 540)" id="55c3c9ae-ead1-4adf-a2bf-9e77ad28f69a"  >
<path style="stroke: rgb(0,0,0); stroke-width: 0; stroke-dasharray: none; stroke-linecap: butt; stroke-dashoffset: 0; stroke-linejoin: miter; stroke-miterlimit: 4; fill: rgb(20,43,111); fill-rule: nonzero; opacity: 1;" vector-effect="non-scaling-stroke"  transform=" translate(-6.51, -10)" d="M 6.67392727 11.9561455 C 6.56047273 12.0001455 6.46410909 12.0376 6.3812 12.0717818 C 6.32410909 12.0496 6.25865455 12.0256 6.18374545 11.9976 C 4.00483636 11.1892364 1.10810909 9.69869091 1.10810909 6.10196364 C 1.10810909 6.08814545 1.10738182 6.07469091 1.10629091 6.06123636 C 1.00010909 4.79614545 1.44229091 3.58705455 2.35065455 2.65578182 C 3.35792727 1.62414545 4.82992727 1.03250909 6.3892 1.03250909 C 9.39501818 1.03250909 11.9350182 3.35396364 11.9350182 6.10196364 C 11.9350182 9.9176 8.11283636 11.3983273 6.67392727 11.9561455 Z M 5.45792727 14.1772364 L 6.46556364 13.1634182 C 6.47210909 13.1623273 6.47901818 13.1626909 6.48556364 13.1616 C 6.5052 13.1586909 6.52301818 13.1503273 6.54229091 13.1456 L 7.56738182 14.1772364 L 5.45792727 14.1772364 Z M 13.0259273 6.10196364 C 13.0259273 2.79432727 9.98629091 0.000145454545 6.3892 0.000145454545 C 4.52665455 0.000145454545 2.76229091 0.712872727 1.54956364 1.95541818 C 0.4372 3.09541818 -0.106436364 4.57432727 0.0172 6.12232727 C 0.0299272727 10.6601455 4.06483636 12.3146909 5.62629091 12.8997818 L 4.23829091 14.2968727 C 4.12883636 14.4070545 4.09865455 14.5685091 4.16229091 14.7074182 C 4.22592727 14.8466909 4.37029091 14.9365091 4.53029091 14.9365091 L 5.66701818 14.9365091 C 5.60738182 15.1954182 5.55174545 15.4445091 5.51792727 15.6961455 C 5.37538182 16.7590545 5.53356364 17.2405091 6.01610909 17.9510545 C 6.66447273 18.9045091 7.62192727 19.5932364 8.86338182 20.0001455 L 9.09647273 19.9426909 C 9.2772 19.7674182 9.36047273 19.6241455 9.34483636 19.5168727 C 9.32192727 19.3634182 9.07829091 19.2001455 8.87829091 19.0903273 L 8.71029091 18.9957818 C 8.62774545 18.9492364 8.5452 18.9026909 8.4612 18.8583273 C 6.97538182 18.0776 6.33392727 17.2768727 6.55465455 15.8005091 C 6.58956364 15.5670545 6.65247273 15.2445091 6.71647273 14.9365091 L 8.49501818 14.9365091 C 8.65501818 14.9365091 8.79974545 14.8466909 8.86338182 14.7074182 C 8.92665455 14.5685091 8.89647273 14.4070545 8.78738182 14.2968727 L 7.32010909 12.8205091 C 8.97610909 12.1688727 13.0259273 10.3939636 13.0259273 6.10196364 Z" stroke-linecap="round" />
</g>
</svg>