<?xml version="1.0" encoding="UTF-8" standalone="no" ?>
<!DOCTYPE svg PUBLIC "-//W3C//DTD SVG 1.1//EN" "http://www.w3.org/Graphics/SVG/1.1/DTD/svg11.dtd">
<svg xmlns="http://www.w3.org/2000/svg" xmlns:xlink="http://www.w3.org/1999/xlink" version="1.1" width="1080" height="1080" viewBox="0 0 1080 1080" xml:space="preserve">
<desc>Created with Fabric.js 4.2.0</desc>
<defs>
</defs>
<rect x="0" y="0" width="100%" height="100%" fill="transparent"></rect>
<g transform="matrix(1 0 0 1 540 540)" id="f6d2abc8-ad3f-4b27-9733-0eeb8db31a5d"  >
<rect style="stroke: none; stroke-width: 1; stroke-dasharray: none; stroke-linecap: butt; stroke-dashoffset: 0; stroke-linejoin: miter; stroke-miterlimit: 4; fill: rgb(255,255,255); fill-rule: nonzero; opacity: 1;" vector-effect="non-scaling-stroke"  x="-540" y="-540" rx="0" ry="0" width="1080" height="1080" />
</g>
<g transform="matrix(1 0 0 1 540 540)" id="bd3c002c-07bc-45d4-9d0a-2e9fcc93b9e3"  >
</g>
<g transform="matrix(11.24 0 0 11.24 540 540)" id="9472fa04-e736-4ec7-9625-d87334822b6b"  >
<path style="stroke: rgb(0,0,0); stroke-width: 0; stroke-dasharray: none; stroke-linecap: butt; stroke-dashoffset: 0; stroke-linejoin: miter; stroke-miterlimit: 4; fill: rgb(20,43,111); fill-rule: nonzero; opacity: 1;" vector-effect="non-scaling-stroke"  transform=" translate(-20, -20)" d="M 33.488 6.342 C 33.474 6.327999999999999 33.47 6.308999999999999 33.457 6.295 C 33.436 6.274 33.406 6.266 33.383 6.2459999999999996 C 29.92 2.876 25.201 0.791 20 0.791 C 9.408 0.791 0.791 9.408 0.791 20 C 0.791 30.592 9.408000000000001 39.209 20 39.209 C 30.592 39.209 39.209 30.592000000000002 39.209 20.000000000000004 C 39.209 14.661 37.016 9.827 33.488 6.342 z M 20 3.791 C 23.868 3.791 27.418 5.156 30.208 7.4239999999999995 L 7.424 30.207 C 5.156 27.418 3.791 23.867 3.791 20 C 3.791 11.061 11.062 3.791 20 3.791 z M 20 36.209 C 16.008 36.209 12.354 34.752 9.527 32.35 L 32.35 9.526 C 34.752 12.354 36.209 16.006999999999998 36.209 20 C 36.209 28.938 28.938 36.209 20 36.209 z" stroke-linecap="round" />
</g>
</svg>