<?xml version="1.0" encoding="UTF-8" standalone="no" ?>
<!DOCTYPE svg PUBLIC "-//W3C//DTD SVG 1.1//EN" "http://www.w3.org/Graphics/SVG/1.1/DTD/svg11.dtd">
<svg xmlns="http://www.w3.org/2000/svg" xmlns:xlink="http://www.w3.org/1999/xlink" version="1.1" width="1080" height="1080" viewBox="0 0 1080 1080" xml:space="preserve">
<desc>Created with Fabric.js 4.2.0</desc>
<defs>
</defs>
<rect x="0" y="0" width="100%" height="100%" fill="transparent"></rect>
<g transform="matrix(1 0 0 1 540 540)" id="f6d2abc8-ad3f-4b27-9733-0eeb8db31a5d"  >
<rect style="stroke: none; stroke-width: 1; stroke-dasharray: none; stroke-linecap: butt; stroke-dashoffset: 0; stroke-linejoin: miter; stroke-miterlimit: 4; fill: rgb(255,255,255); fill-rule: nonzero; opacity: 1;" vector-effect="non-scaling-stroke"  x="-540" y="-540" rx="0" ry="0" width="1080" height="1080" />
</g>
<g transform="matrix(1 0 0 1 540 540)" id="bd3c002c-07bc-45d4-9d0a-2e9fcc93b9e3"  >
</g>
<g transform="matrix(11.37 0 0 11.37 540 540)" id="a4f0d8d3-b067-4e2d-813c-894dcc9f8b91"  >
<path style="stroke: rgb(0,0,0); stroke-width: 0; stroke-dasharray: none; stroke-linecap: butt; stroke-dashoffset: 0; stroke-linejoin: miter; stroke-miterlimit: 4; fill: rgb(20,43,111); fill-rule: nonzero; opacity: 1;" vector-effect="non-scaling-stroke"  transform=" translate(-20, -20)" d="M 38.553 9.801 C 38.272 9.519 37.891 9.361 37.492999999999995 9.361 L 31.842999999999996 9.357000000000001 L 31.832999999999995 9.357000000000001 C 27.538999999999994 9.357000000000001 23.837999999999994 11.341000000000001 21.429999999999993 14.545000000000002 C 20.822 7.054 15.315 1.55 8.16 1.545 L 2.51 1.541 C 1.682 1.541 1.0099999999999998 2.2119999999999997 1.0099999999999998 3.04 L 1.008 4.365 C 1.0050000000000001 8.712 2.699 12.805 5.779 15.889 C 8.859 18.973 12.949 20.672 17.29 20.674999999999997 L 18.491 20.682 L 18.487 25.988 C 18.487 25.989 18.487 25.989 18.487 25.989 L 18.487 25.990000000000002 L 18.477999999999998 38.458 L 21.477999999999998 38.46 L 21.485 27.48 L 22.68 27.476 L 22.695 27.476 C 27.076999999999998 27.476 31.146 25.977 34.150999999999996 23.255 C 37.267999999999994 20.433 38.988 16.503 38.991 12.188999999999998 L 38.992 10.863999999999999 C 38.992 10.464 38.834 10.083 38.553 9.801 z M 17.298 17.675 C 13.751999999999999 17.673000000000002 10.415 16.285 7.9019999999999975 13.769 C 5.431 11.293 4.051 8.022 4.01 4.542 L 8.158 4.545 C 14.116999999999999 4.5489999999999995 18.464 9.309999999999999 18.494 15.855 L 18.493 17.681 L 17.298 17.675 z M 32.138 21.03 C 29.685 23.252000000000002 26.331999999999997 24.474 22.689999999999998 24.474 L 22.676999999999996 24.474 L 21.487999999999996 24.478 L 21.487999999999996 23.685000000000002 C 21.487999999999996 23.677000000000003 21.491999999999997 23.669000000000004 21.491999999999997 23.662000000000003 C 21.528999999999996 17.110000000000003 25.877999999999997 12.357000000000003 31.833999999999996 12.357000000000003 L 31.841999999999995 12.357000000000003 L 35.989999999999995 12.360000000000003 C 35.942 15.748 34.578 18.821 32.138 21.03 z" stroke-linecap="round" />
</g>
</svg>